<svg width="3980" height="1080" viewBox="0 0 3980 1080" fill="none" xmlns="http://www.w3.org/2000/svg">
<g clip-path="url(#clip0_1_4869)">
<rect width="3980" height="1080" fill="white"/>
<rect width="80" height="80" fill="#EBEDF0"/>
<rect y="100" width="80" height="80" fill="#EBEDF0"/>
<rect y="200" width="80" height="80" fill="#EBEDF0"/>
<rect x="100" width="80" height="80" fill="#EBEDF0"/>
<rect x="100" y="100" width="80" height="80" fill="#EBEDF0"/>
<rect x="100" y="200" width="80" height="80" fill="#EBEDF0"/>
<rect x="200" width="80" height="80" fill="#EBEDF0"/>
<rect x="200" y="100" width="80" height="80" fill="#EBEDF0"/>
<rect x="200" y="200" width="80" height="80" fill="#EBEDF0"/>
<rect x="300" width="80" height="80" fill="#EBEDF0"/>
<rect x="300" y="100" width="80" height="80" fill="#EBEDF0"/>
<rect x="300" y="200" width="80" height="80" fill="#EBEDF0"/>
<rect x="400" width="80" height="80" fill="#EBEDF0"/>
<rect x="400" y="100" width="80" height="80" fill="#EBEDF0"/>
<rect x="400" y="200" width="80" height="80" fill="#EBEDF0"/>
<rect x="500" width="80" height="80" fill="#EBEDF0"/>
<rect x="500" y="100" width="80" height="80" fill="#EBEDF0"/>
<rect x="500" y="200" width="80" height="80" fill="#EBEDF0"/>
<rect x="700" width="80" height="80" fill="#EBEDF0"/>
<rect x="700" y="100" width="80" height="80" fill="#EBEDF0"/>
<rect x="700" y="200" width="80" height="80" fill="#EBEDF0"/>
<rect x="800" width="80" height="80" fill="#EBEDF0"/>
<rect x="800" y="100" width="80" height="80" fill="#EBEDF0"/>
<rect x="800" y="200" width="80" height="80" fill="#EBEDF0"/>
<rect x="900" width="80" height="80" fill="#EBEDF0"/>
<rect x="900" y="100" width="80" height="80" fill="#EBEDF0"/>
<rect x="900" y="200" width="80" height="80" fill="#EBEDF0"/>
<rect x="1100" width="80" height="80" fill="#EBEDF0"/>
<rect x="1100" y="100" width="80" height="80" fill="#EBEDF0"/>
<rect x="1100" y="200" width="80" height="80" fill="#EBEDF0"/>
<rect x="1200" width="80" height="80" fill="#EBEDF0"/>
<rect x="1200" y="100" width="80" height="80" fill="#EBEDF0"/>
<rect x="1200" y="200" width="80" height="80" fill="#EBEDF0"/>
<rect x="1300" width="80" height="80" fill="#EBEDF0"/>
<rect x="1300" y="100" width="80" height="80" fill="#EBEDF0"/>
<rect x="1300" y="200" width="80" height="80" fill="#EBEDF0"/>
<rect x="1600" y="400" width="80" height="80" fill="#EBEDF0"/>
<rect x="1600" y="500" width="80" height="80" fill="#EBEDF0"/>
<rect x="1600" y="600" width="80" height="80" fill="#EBEDF0"/>
<rect x="1700" y="400" width="80" height="80" fill="#EBEDF0"/>
<rect x="1700" y="500" width="80" height="80" fill="#EBEDF0"/>
<rect x="1700" y="600" width="80" height="80" fill="#EBEDF0"/>
<rect x="1100" y="300" width="80" height="80" fill="#EBEDF0"/>
<rect x="1200" y="300" width="80" height="80" fill="#EBEDF0"/>
<rect x="1300" y="300" width="80" height="80" fill="#EBEDF0"/>
<rect x="1100" y="500" width="80" height="80" fill="#EBEDF0"/>
<rect x="1100" y="600" width="80" height="80" fill="#EBEDF0"/>
<rect x="1100" y="700" width="80" height="80" fill="#EBEDF0"/>
<rect x="1200" y="500" width="80" height="80" fill="#EBEDF0"/>
<rect x="1200" y="600" width="80" height="80" fill="#EBEDF0"/>
<rect x="1200" y="700" width="80" height="80" fill="#EBEDF0"/>
<rect x="1300" y="500" width="80" height="80" fill="#EBEDF0"/>
<rect x="1300" y="600" width="80" height="80" fill="#EBEDF0"/>
<rect x="1300" y="700" width="80" height="80" fill="#EBEDF0"/>
<rect x="1100" y="800" width="80" height="80" fill="#EBEDF0"/>
<rect x="1200" y="800" width="80" height="80" fill="#EBEDF0"/>
<rect x="1300" y="800" width="80" height="80" fill="#EBEDF0"/>
<rect x="1100" y="900" width="80" height="80" fill="#EBEDF0"/>
<rect x="1200" y="900" width="80" height="80" fill="#EBEDF0"/>
<rect x="1300" y="900" width="80" height="80" fill="#EBEDF0"/>
<rect x="1100" y="1000" width="80" height="80" fill="#EBEDF0"/>
<rect x="1200" y="1000" width="80" height="80" fill="#EBEDF0"/>
<rect x="700" y="400" width="80" height="80" fill="#EBEDF0"/>
<rect x="700" y="500" width="80" height="80" fill="#EBEDF0"/>
<rect x="700" y="600" width="80" height="80" fill="#EBEDF0"/>
<rect x="800" y="400" width="80" height="80" fill="#EBEDF0"/>
<rect x="800" y="500" width="80" height="80" fill="#EBEDF0"/>
<rect x="800" y="600" width="80" height="80" fill="#EBEDF0"/>
<rect x="700" y="700" width="80" height="80" fill="#EBEDF0"/>
<rect x="800" y="700" width="80" height="80" fill="#EBEDF0"/>
<rect x="700" y="800" width="80" height="80" fill="#EBEDF0"/>
<rect x="800" y="800" width="80" height="80" fill="#EBEDF0"/>
<rect x="700" y="900" width="80" height="80" fill="#EBEDF0"/>
<rect x="800" y="900" width="80" height="80" fill="#EBEDF0"/>
<rect x="1300" y="1000" width="80" height="80" fill="#EBEDF0"/>
<rect x="500" y="300" width="80" height="80" fill="#EBEDF0"/>
<rect x="500" y="400" width="80" height="80" fill="#EBEDF0"/>
<rect x="500" y="500" width="80" height="80" fill="#EBEDF0"/>
<rect x="1000" width="80" height="80" fill="#EBEDF0"/>
<rect x="1000" y="100" width="80" height="80" fill="#EBEDF0"/>
<rect x="1000" y="200" width="80" height="80" fill="#EBEDF0"/>
<rect x="1000" y="300" width="80" height="80" fill="#EBEDF0"/>
<rect x="1000" y="400" width="80" height="80" fill="#EBEDF0"/>
<rect x="1000" y="500" width="80" height="80" fill="#EBEDF0"/>
<rect x="1400" width="80" height="80" fill="#EBEDF0"/>
<rect x="1400" y="100" width="80" height="80" fill="#EBEDF0"/>
<rect x="1400" y="200" width="80" height="80" fill="#EBEDF0"/>
<rect x="1500" width="80" height="80" fill="#EBEDF0"/>
<rect x="1500" y="100" width="80" height="80" fill="#EBEDF0"/>
<rect x="1500" y="200" width="80" height="80" fill="#EBEDF0"/>
<rect x="1600" width="80" height="80" fill="#EBEDF0"/>
<rect x="1600" y="100" width="80" height="80" fill="#EBEDF0"/>
<rect x="1600" y="200" width="80" height="80" fill="#EBEDF0"/>
<rect x="1700" width="80" height="80" fill="#EBEDF0"/>
<rect x="1700" y="100" width="80" height="80" fill="#EBEDF0"/>
<rect x="1700" y="200" width="80" height="80" fill="#EBEDF0"/>
<rect x="1800" width="80" height="80" fill="#EBEDF0"/>
<rect x="1800" y="100" width="80" height="80" fill="#EBEDF0"/>
<rect x="1800" y="200" width="80" height="80" fill="#EBEDF0"/>
<rect x="1400" y="300" width="80" height="80" fill="#EBEDF0"/>
<rect x="1400" y="400" width="80" height="80" fill="#EBEDF0"/>
<rect x="1400" y="500" width="80" height="80" fill="#EBEDF0"/>
<rect x="1400" y="600" width="80" height="80" fill="#EBEDF0"/>
<rect x="1400" y="700" width="80" height="80" fill="#EBEDF0"/>
<rect x="1400" y="800" width="80" height="80" fill="#EBEDF0"/>
<rect x="1400" y="900" width="80" height="80" fill="#EBEDF0"/>
<rect x="1400" y="1000" width="80" height="80" fill="#EBEDF0"/>
<rect x="1500" y="800" width="80" height="80" fill="#EBEDF0"/>
<rect x="1600" y="800" width="80" height="80" fill="#EBEDF0"/>
<rect x="1600" y="900" width="80" height="80" fill="#EBEDF0"/>
<rect x="1700" y="800" width="80" height="80" fill="#EBEDF0"/>
<rect x="1700" y="900" width="80" height="80" fill="#EBEDF0"/>
<rect x="1000" y="600" width="80" height="80" fill="#EBEDF0"/>
<rect x="1000" y="700" width="80" height="80" fill="#EBEDF0"/>
<rect x="1000" y="800" width="80" height="80" fill="#EBEDF0"/>
<rect x="1000" y="900" width="80" height="80" fill="#EBEDF0"/>
<rect x="900" y="800" width="80" height="80" fill="#EBEDF0"/>
<rect x="900" y="900" width="80" height="80" fill="#EBEDF0"/>
<rect x="1000" y="1000" width="80" height="80" fill="#EBEDF0"/>
<rect x="700" y="1000" width="80" height="80" fill="#EBEDF0"/>
<rect x="800" y="1000" width="80" height="80" fill="#EBEDF0"/>
<rect x="200" y="400" width="80" height="80" fill="#EBEDF0"/>
<rect x="300" y="400" width="80" height="80" fill="#EBEDF0"/>
<rect x="200" y="500" width="80" height="80" fill="#EBEDF0"/>
<rect x="300" y="500" width="80" height="80" fill="#EBEDF0"/>
<rect x="200" y="600" width="80" height="80" fill="#EBEDF0"/>
<rect x="300" y="600" width="80" height="80" fill="#EBEDF0"/>
<rect x="900" y="1000" width="80" height="80" fill="#EBEDF0"/>
<rect x="600" y="800" width="80" height="80" fill="#EBEDF0"/>
<rect x="600" y="900" width="80" height="80" fill="#EBEDF0"/>
<rect x="600" y="1000" width="80" height="80" fill="#EBEDF0"/>
<rect x="500" y="600" width="80" height="80" fill="#EBEDF0"/>
<rect x="500" y="700" width="80" height="80" fill="#EBEDF0"/>
<rect x="500" y="800" width="80" height="80" fill="#EBEDF0"/>
<rect x="500" y="900" width="80" height="80" fill="#EBEDF0"/>
<rect x="300" y="800" width="80" height="80" fill="#EBEDF0"/>
<rect x="300" y="900" width="80" height="80" fill="#EBEDF0"/>
<rect x="200" y="800" width="80" height="80" fill="#EBEDF0"/>
<rect x="200" y="900" width="80" height="80" fill="#EBEDF0"/>
<rect x="100" y="800" width="80" height="80" fill="#EBEDF0"/>
<rect x="500" y="1000" width="80" height="80" fill="#EBEDF0"/>
<rect x="2600" y="800" width="80" height="80" fill="#EBEDF0"/>
<rect x="2700" y="800" width="80" height="80" fill="#EBEDF0"/>
<rect x="2800" y="800" width="80" height="80" fill="#EBEDF0"/>
<rect x="2600" y="900" width="80" height="80" fill="#EBEDF0"/>
<rect x="2700" y="900" width="80" height="80" fill="#EBEDF0"/>
<rect x="2800" y="900" width="80" height="80" fill="#EBEDF0"/>
<rect x="2600" y="1000" width="80" height="80" fill="#EBEDF0"/>
<rect x="2700" y="1000" width="80" height="80" fill="#EBEDF0"/>
<rect x="2200" y="800" width="80" height="80" fill="#EBEDF0"/>
<rect x="2300" y="800" width="80" height="80" fill="#EBEDF0"/>
<rect x="2200" y="900" width="80" height="80" fill="#EBEDF0"/>
<rect x="2300" y="900" width="80" height="80" fill="#EBEDF0"/>
<rect x="2800" y="1000" width="80" height="80" fill="#EBEDF0"/>
<rect x="2900" y="800" width="80" height="80" fill="#EBEDF0"/>
<rect x="2900" y="900" width="80" height="80" fill="#EBEDF0"/>
<rect x="2900" y="1000" width="80" height="80" fill="#EBEDF0"/>
<rect x="2900" y="700" width="80" height="80" fill="#EBEDF0"/>
<rect x="2500" y="800" width="80" height="80" fill="#EBEDF0"/>
<rect x="2500" y="900" width="80" height="80" fill="#EBEDF0"/>
<rect x="2400" y="800" width="80" height="80" fill="#EBEDF0"/>
<rect x="2400" y="900" width="80" height="80" fill="#EBEDF0"/>
<rect x="2500" y="1000" width="80" height="80" fill="#EBEDF0"/>
<rect x="2200" y="1000" width="80" height="80" fill="#EBEDF0"/>
<rect x="2300" y="1000" width="80" height="80" fill="#EBEDF0"/>
<rect x="2400" y="1000" width="80" height="80" fill="#EBEDF0"/>
<rect x="2600" y="1000" width="80" height="80" fill="#EBEDF0"/>
<rect x="2600" y="600" width="80" height="80" fill="#EBEDF0"/>
<rect x="2700" y="600" width="80" height="80" fill="#EBEDF0"/>
<rect x="2600" y="600" width="80" height="80" fill="#EBEDF0"/>
<rect x="2500" y="1000" width="80" height="80" fill="#EBEDF0"/>
<rect x="2400" y="1000" width="80" height="80" fill="#EBEDF0"/>
<rect x="2700" y="400" width="80" height="80" fill="#EBEDF0"/>
<rect x="2600" y="400" width="80" height="80" fill="#EBEDF0"/>
<rect x="2500" y="400" width="80" height="80" fill="#EBEDF0"/>
<rect x="2700" y="400" width="80" height="80" fill="#EBEDF0"/>
<rect x="2600" y="400" width="80" height="80" fill="#EBEDF0"/>
<rect x="2500" y="400" width="80" height="80" fill="#EBEDF0"/>
<rect x="2100" y="800" width="80" height="80" fill="#EBEDF0"/>
<rect x="2100" y="900" width="80" height="80" fill="#EBEDF0"/>
<rect x="2100" y="1000" width="80" height="80" fill="#EBEDF0"/>
<rect x="2210" y="400" width="80" height="80" fill="#EBEDF0"/>
<rect x="2210" y="500" width="80" height="80" fill="#EBEDF0"/>
<rect x="2300" y="500" width="80" height="80" fill="#EBEDF0"/>
<rect x="2110" y="400" width="80" height="80" fill="#EBEDF0"/>
<rect x="2110" y="500" width="80" height="80" fill="#EBEDF0"/>
<rect x="2200" y="600" width="80" height="80" fill="#EBEDF0"/>
<rect x="2300" y="600" width="80" height="80" fill="#EBEDF0"/>
<rect x="2400" y="600" width="80" height="80" fill="#EBEDF0"/>
<rect x="2200" y="700" width="80" height="80" fill="#EBEDF0"/>
<rect x="2300" y="700" width="80" height="80" fill="#EBEDF0"/>
<rect x="2400" y="700" width="80" height="80" fill="#EBEDF0"/>
<rect x="2100" y="600" width="80" height="80" fill="#EBEDF0"/>
<rect x="2100" y="700" width="80" height="80" fill="#EBEDF0"/>
<rect x="2000" y="800" width="80" height="80" fill="#EBEDF0"/>
<rect x="2000" y="900" width="80" height="80" fill="#EBEDF0"/>
<rect x="2000" y="1000" width="80" height="80" fill="#EBEDF0"/>
<rect x="3600" y="800" width="80" height="80" fill="#EBEDF0"/>
<rect x="3700" y="800" width="80" height="80" fill="#EBEDF0"/>
<rect x="3800" y="800" width="80" height="80" fill="#EBEDF0"/>
<rect x="3600" y="900" width="80" height="80" fill="#EBEDF0"/>
<rect x="3700" y="900" width="80" height="80" fill="#EBEDF0"/>
<rect x="3800" y="900" width="80" height="80" fill="#EBEDF0"/>
<rect x="3600" y="1000" width="80" height="80" fill="#EBEDF0"/>
<rect x="3700" y="1000" width="80" height="80" fill="#EBEDF0"/>
<rect x="3200" y="800" width="80" height="80" fill="#EBEDF0"/>
<rect x="3300" y="800" width="80" height="80" fill="#EBEDF0"/>
<rect x="3200" y="900" width="80" height="80" fill="#EBEDF0"/>
<rect x="3300" y="900" width="80" height="80" fill="#EBEDF0"/>
<rect x="3800" y="1000" width="80" height="80" fill="#EBEDF0"/>
<rect x="3900" y="800" width="80" height="80" fill="#EBEDF0"/>
<rect x="3900" y="900" width="80" height="80" fill="#EBEDF0"/>
<rect x="3900" y="1000" width="80" height="80" fill="#EBEDF0"/>
<rect x="3600" y="400" width="80" height="80" fill="#EBEDF0"/>
<rect x="3700" y="400" width="80" height="80" fill="#EBEDF0"/>
<rect x="3800" y="400" width="80" height="80" fill="#EBEDF0"/>
<rect x="3600" y="600" width="80" height="80" fill="#EBEDF0"/>
<rect x="3700" y="600" width="80" height="80" fill="#EBEDF0"/>
<rect x="3500" y="800" width="80" height="80" fill="#EBEDF0"/>
<rect x="3500" y="900" width="80" height="80" fill="#EBEDF0"/>
<rect x="3400" y="800" width="80" height="80" fill="#EBEDF0"/>
<rect x="3400" y="900" width="80" height="80" fill="#EBEDF0"/>
<rect x="3500" y="1000" width="80" height="80" fill="#EBEDF0"/>
<rect x="3600" width="80" height="80" fill="#EBEDF0"/>
<rect x="3700" width="80" height="80" fill="#EBEDF0"/>
<rect x="3800" width="80" height="80" fill="#EBEDF0"/>
<rect x="3600" y="100" width="80" height="80" fill="#EBEDF0"/>
<rect x="3700" y="100" width="80" height="80" fill="#EBEDF0"/>
<rect x="3800" y="100" width="80" height="80" fill="#EBEDF0"/>
<rect x="3600" y="200" width="80" height="80" fill="#EBEDF0"/>
<rect x="3700" y="200" width="80" height="80" fill="#EBEDF0"/>
<rect x="3800" y="200" width="80" height="80" fill="#EBEDF0"/>
<rect x="3500" width="80" height="80" fill="#EBEDF0"/>
<rect x="3500" y="100" width="80" height="80" fill="#EBEDF0"/>
<rect x="3500" y="200" width="80" height="80" fill="#EBEDF0"/>
<rect x="3100" width="80" height="80" fill="#EBEDF0"/>
<rect x="3200" width="80" height="80" fill="#EBEDF0"/>
<rect x="3300" width="80" height="80" fill="#EBEDF0"/>
<rect x="3100" y="100" width="80" height="80" fill="#EBEDF0"/>
<rect x="3200" y="100" width="80" height="80" fill="#EBEDF0"/>
<rect x="3300" y="100" width="80" height="80" fill="#EBEDF0"/>
<rect x="3100" y="200" width="80" height="80" fill="#EBEDF0"/>
<rect x="3200" y="200" width="80" height="80" fill="#EBEDF0"/>
<rect x="3300" y="200" width="80" height="80" fill="#EBEDF0"/>
<rect x="3000" width="80" height="80" fill="#EBEDF0"/>
<rect x="3000" y="100" width="80" height="80" fill="#EBEDF0"/>
<rect x="3000" y="200" width="80" height="80" fill="#EBEDF0"/>
<rect x="3200" y="1000" width="80" height="80" fill="#EBEDF0"/>
<rect x="3300" y="1000" width="80" height="80" fill="#EBEDF0"/>
<rect x="3400" y="1000" width="80" height="80" fill="#EBEDF0"/>
<rect x="3400" y="600" width="80" height="80" fill="#EBEDF0"/>
<rect x="3500" y="600" width="80" height="80" fill="#EBEDF0"/>
<rect x="3400" y="700" width="80" height="80" fill="#EBEDF0"/>
<rect x="3100" y="800" width="80" height="80" fill="#EBEDF0"/>
<rect x="3100" y="900" width="80" height="80" fill="#EBEDF0"/>
<rect x="3100" y="1000" width="80" height="80" fill="#EBEDF0"/>
<rect x="3200" y="400" width="80" height="80" fill="#EBEDF0"/>
<rect x="3300" y="400" width="80" height="80" fill="#EBEDF0"/>
<rect x="3100" y="400" width="80" height="80" fill="#EBEDF0"/>
<rect x="3000" y="800" width="80" height="80" fill="#EBEDF0"/>
<rect x="3000" y="900" width="80" height="80" fill="#EBEDF0"/>
<rect x="3000" y="1000" width="80" height="80" fill="#EBEDF0"/>
<rect x="2900" y="600" width="80" height="80" fill="#EBEDF0"/>
<rect x="3200" y="600" width="80" height="80" fill="#EBEDF0"/>
<rect x="3100" y="600" width="80" height="80" fill="#EBEDF0"/>
<rect x="3000" y="600" width="80" height="80" fill="#EBEDF0"/>
<rect x="1900" width="80" height="80" fill="#EBEDF0"/>
<rect x="1900" y="100" width="80" height="80" fill="#EBEDF0"/>
<rect x="1900" y="200" width="80" height="80" fill="#EBEDF0"/>
<rect x="2000" width="80" height="80" fill="#EBEDF0"/>
<rect x="2000" y="100" width="80" height="80" fill="#EBEDF0"/>
<rect x="2000" y="200" width="80" height="80" fill="#EBEDF0"/>
<rect x="2100" width="80" height="80" fill="#EBEDF0"/>
<rect x="2100" y="100" width="80" height="80" fill="#EBEDF0"/>
<rect x="2100" y="200" width="80" height="80" fill="#EBEDF0"/>
<rect x="2200" width="80" height="80" fill="#EBEDF0"/>
<rect x="2200" y="100" width="80" height="80" fill="#EBEDF0"/>
<rect x="2200" y="200" width="80" height="80" fill="#EBEDF0"/>
<rect x="2300" width="80" height="80" fill="#EBEDF0"/>
<rect x="2300" y="100" width="80" height="80" fill="#EBEDF0"/>
<rect x="2300" y="200" width="80" height="80" fill="#EBEDF0"/>
<rect x="2500" width="80" height="80" fill="#EBEDF0"/>
<rect x="2500" y="100" width="80" height="80" fill="#EBEDF0"/>
<rect x="2500" y="200" width="80" height="80" fill="#EBEDF0"/>
<rect x="2600" width="80" height="80" fill="#EBEDF0"/>
<rect x="2600" y="100" width="80" height="80" fill="#EBEDF0"/>
<rect x="2600" y="200" width="80" height="80" fill="#EBEDF0"/>
<rect x="2700" width="80" height="80" fill="#EBEDF0"/>
<rect x="2700" y="100" width="80" height="80" fill="#EBEDF0"/>
<rect x="2700" y="200" width="80" height="80" fill="#EBEDF0"/>
<rect x="2800" width="80" height="80" fill="#EBEDF0"/>
<rect x="2800" y="100" width="80" height="80" fill="#EBEDF0"/>
<rect x="2800" y="200" width="80" height="80" fill="#EBEDF0"/>
<rect x="1900" y="300" width="80" height="80" fill="#EBEDF0"/>
<rect x="1900" y="400" width="80" height="80" fill="#EBEDF0"/>
<rect x="1900" y="500" width="80" height="80" fill="#EBEDF0"/>
<rect x="1900" y="600" width="80" height="80" fill="#EBEDF0"/>
<rect x="1900" y="700" width="80" height="80" fill="#EBEDF0"/>
<rect x="1900" y="800" width="80" height="80" fill="#EBEDF0"/>
<rect x="1900" y="900" width="80" height="80" fill="#EBEDF0"/>
<rect x="1900" y="1000" width="80" height="80" fill="#EBEDF0"/>
<rect x="2400" width="80" height="80" fill="#EBEDF0"/>
<rect x="2400" y="100" width="80" height="80" fill="#EBEDF0"/>
<rect x="2400" y="200" width="80" height="80" fill="#EBEDF0"/>
<rect x="2400" y="300" width="80" height="80" fill="#EBEDF0"/>
<rect x="2400" y="400" width="80" height="80" fill="#EBEDF0"/>
<rect x="2400" y="500" width="80" height="80" fill="#EBEDF0"/>
<rect x="2900" width="80" height="80" fill="#EBEDF0"/>
<rect x="2900" y="100" width="80" height="80" fill="#EBEDF0"/>
<rect x="2900" y="200" width="80" height="80" fill="#EBEDF0"/>
<rect x="2900" y="300" width="80" height="80" fill="#EBEDF0"/>
<rect x="2900" y="400" width="80" height="80" fill="#EBEDF0"/>
<rect x="2900" y="500" width="80" height="80" fill="#EBEDF0"/>
<rect x="3400" width="80" height="80" fill="#EBEDF0"/>
<rect x="3400" y="100" width="80" height="80" fill="#EBEDF0"/>
<rect x="3400" y="200" width="80" height="80" fill="#EBEDF0"/>
<rect x="3400" y="300" width="80" height="80" fill="#EBEDF0"/>
<rect x="3400" y="400" width="80" height="80" fill="#EBEDF0"/>
<rect x="3400" y="500" width="80" height="80" fill="#EBEDF0"/>
<rect x="3900" width="80" height="80" fill="#EBEDF0"/>
<rect x="3900" y="100" width="80" height="80" fill="#EBEDF0"/>
<rect x="3900" y="200" width="80" height="80" fill="#EBEDF0"/>
<rect x="3900" y="300" width="80" height="80" fill="#EBEDF0"/>
<rect x="3900" y="400" width="80" height="80" fill="#EBEDF0"/>
<rect x="3900" y="500" width="80" height="80" fill="#EBEDF0"/>
<rect x="3900" y="600" width="80" height="80" fill="#EBEDF0"/>
<rect x="3900" y="700" width="80" height="80" fill="#EBEDF0"/>
<rect y="300" width="80" height="80" fill="#EBEDF0"/>
<rect y="400" width="80" height="80" fill="#EBEDF0"/>
<rect y="500" width="80" height="80" fill="#EBEDF0"/>
<rect y="600" width="80" height="80" fill="#EBEDF0"/>
<rect y="700" width="80" height="80" fill="#EBEDF0"/>
<rect y="800" width="80" height="80" fill="#EBEDF0"/>
<rect y="900" width="80" height="80" fill="#EBEDF0"/>
<rect y="1000" width="80" height="80" fill="#EBEDF0"/>
<rect x="400" y="300" width="80" height="80" fill="#216E39"/>
<rect x="100" y="600" width="80" height="80" fill="#216E39"/>
<rect x="300" y="700" width="80" height="80" fill="#216E39"/>
<rect x="400" y="700" width="80" height="80" fill="#216E39"/>
<rect x="400" y="900" width="80" height="80" fill="#216E39"/>
<rect x="200" y="1000" width="80" height="80" fill="#216E39"/>
<rect x="700" y="300" width="80" height="80" fill="#216E39"/>
<rect x="1500" y="400" width="80" height="80" fill="#216E39"/>
<rect x="1700" y="700" width="80" height="80" fill="#216E39"/>
<rect x="2000" y="600" width="80" height="80" fill="#216E39"/>
<rect x="2200" y="300" width="80" height="80" fill="#216E39"/>
<rect x="2500" y="500" width="80" height="80" fill="#216E39"/>
<rect x="2700" y="700" width="80" height="80" fill="#216E39"/>
<rect x="2800" y="300" width="80" height="80" fill="#216E39"/>
<rect x="3000" y="400" width="80" height="80" fill="#216E39"/>
<rect x="3000" y="700" width="80" height="80" fill="#216E39"/>
<rect x="3300" y="500" width="80" height="80" fill="#216E39"/>
<rect x="3700" y="300" width="80" height="80" fill="#216E39"/>
<rect x="3700" y="700" width="80" height="80" fill="#216E39"/>
<rect x="3600" y="500" width="80" height="80" fill="#216E39"/>
<rect x="200" y="300" width="80" height="80" fill="#30A14E"/>
<rect x="100" y="500" width="80" height="80" fill="#30A14E"/>
<rect x="200" y="700" width="80" height="80" fill="#30A14E"/>
<rect x="100" y="900" width="80" height="80" fill="#30A14E"/>
<rect x="100" y="1000" width="80" height="80" fill="#30A14E"/>
<rect x="600" y="100" width="80" height="80" fill="#30A14E"/>
<rect x="900" y="300" width="80" height="80" fill="#30A14E"/>
<rect x="900" y="400" width="80" height="80" fill="#30A14E"/>
<rect x="1200" y="400" width="80" height="80" fill="#30A14E"/>
<rect x="1500" y="500" width="80" height="80" fill="#30A14E"/>
<rect x="1600" y="300" width="80" height="80" fill="#30A14E"/>
<rect x="1600" y="700" width="80" height="80" fill="#30A14E"/>
<rect x="1500" y="900" width="80" height="80" fill="#30A14E"/>
<rect x="1800" y="900" width="80" height="80" fill="#30A14E"/>
<rect x="2000" y="500" width="80" height="80" fill="#30A14E"/>
<rect x="2100" y="300" width="80" height="80" fill="#30A14E"/>
<rect x="2600" y="300" width="80" height="80" fill="#30A14E"/>
<rect x="2600" y="500" width="80" height="80" fill="#30A14E"/>
<rect x="2500" y="700" width="80" height="80" fill="#30A14E"/>
<rect x="3100" y="300" width="80" height="80" fill="#30A14E"/>
<rect x="3100" y="500" width="80" height="80" fill="#30A14E"/>
<rect x="3100" y="700" width="80" height="80" fill="#30A14E"/>
<rect x="3300" y="700" width="80" height="80" fill="#30A14E"/>
<rect x="3500" y="700" width="80" height="80" fill="#30A14E"/>
<rect x="3800" y="500" width="80" height="80" fill="#30A14E"/>
<rect x="3500" y="300" width="80" height="80" fill="#30A14E"/>
<rect x="100" y="300" width="80" height="80" fill="#40C463"/>
<rect x="100" y="700" width="80" height="80" fill="#40C463"/>
<rect x="100" y="400" width="80" height="80" fill="#40C463"/>
<rect x="400" y="400" width="80" height="80" fill="#40C463"/>
<rect x="300" y="300" width="80" height="80" fill="#40C463"/>
<rect x="400" y="600" width="80" height="80" fill="#40C463"/>
<rect x="400" y="800" width="80" height="80" fill="#40C463"/>
<rect x="300" y="1000" width="80" height="80" fill="#40C463"/>
<rect x="400" y="1000" width="80" height="80" fill="#40C463"/>
<rect x="600" y="700" width="80" height="80" fill="#40C463"/>
<rect x="600" y="500" width="80" height="80" fill="#40C463"/>
<rect x="600" y="600" width="80" height="80" fill="#40C463"/>
<rect x="800" y="300" width="80" height="80" fill="#40C463"/>
<rect x="900" y="500" width="80" height="80" fill="#40C463"/>
<rect x="900" y="700" width="80" height="80" fill="#40C463"/>
<rect x="1100" y="400" width="80" height="80" fill="#40C463"/>
<rect x="1300" y="400" width="80" height="80" fill="#40C463"/>
<rect x="1500" y="300" width="80" height="80" fill="#40C463"/>
<rect x="1500" y="600" width="80" height="80" fill="#40C463"/>
<rect x="1500" y="700" width="80" height="80" fill="#40C463"/>
<rect x="1800" y="300" width="80" height="80" fill="#40C463"/>
<rect x="2000" y="300" width="80" height="80" fill="#40C463"/>
<rect x="2000" y="400" width="80" height="80" fill="#40C463"/>
<rect x="2000" y="700" width="80" height="80" fill="#40C463"/>
<rect x="2300" y="300" width="80" height="80" fill="#40C463"/>
<rect x="2300" y="400" width="80" height="80" fill="#40C463"/>
<rect x="2500" y="300" width="80" height="80" fill="#40C463"/>
<rect x="2700" y="300" width="80" height="80" fill="#40C463"/>
<rect x="2700" y="500" width="80" height="80" fill="#40C463"/>
<rect x="2800" y="600" width="80" height="80" fill="#40C463"/>
<rect x="3200" y="500" width="80" height="80" fill="#40C463"/>
<rect x="3300" y="600" width="80" height="80" fill="#40C463"/>
<rect x="3500" y="400" width="80" height="80" fill="#40C463"/>
<rect x="3700" y="500" width="80" height="80" fill="#40C463"/>
<rect x="3800" y="700" width="80" height="80" fill="#40C463"/>
<rect x="3800" y="600" width="80" height="80" fill="#40C463"/>
<rect x="3600" y="700" width="80" height="80" fill="#40C463"/>
<rect x="3800" y="300" width="80" height="80" fill="#40C463"/>
<rect x="3500" y="500" width="80" height="80" fill="#40C463"/>
<rect x="3600" y="300" width="80" height="80" fill="#40C463"/>
<rect x="3200" y="700" width="80" height="80" fill="#40C463"/>
<rect x="3000" y="300" width="80" height="80" fill="#40C463"/>
<rect x="3300" y="300" width="80" height="80" fill="#40C463"/>
<rect x="3200" y="300" width="80" height="80" fill="#40C463"/>
<rect x="3000" y="500" width="80" height="80" fill="#40C463"/>
<rect x="2800" y="700" width="80" height="80" fill="#40C463"/>
<rect x="2800" y="500" width="80" height="80" fill="#40C463"/>
<rect x="2800" y="400" width="80" height="80" fill="#40C463"/>
<rect x="2600" y="700" width="80" height="80" fill="#40C463"/>
<rect x="2500" y="600" width="80" height="80" fill="#40C463"/>
<rect x="1800" y="400" width="80" height="80" fill="#40C463"/>
<rect x="1700" y="300" width="80" height="80" fill="#40C463"/>
<rect x="1800" y="500" width="80" height="80" fill="#40C463"/>
<rect x="1800" y="600" width="80" height="80" fill="#40C463"/>
<rect x="1800" y="700" width="80" height="80" fill="#40C463"/>
<rect x="1800" y="1000" width="80" height="80" fill="#40C463"/>
<rect x="1700" y="1000" width="80" height="80" fill="#40C463"/>
<rect x="1600" y="1000" width="80" height="80" fill="#40C463"/>
<rect x="1500" y="1000" width="80" height="80" fill="#40C463"/>
<rect x="1800" y="800" width="80" height="80" fill="#40C463"/>
<rect x="900" y="600" width="80" height="80" fill="#40C463"/>
<rect x="600" y="400" width="80" height="80" fill="#40C463"/>
<rect x="600" y="300" width="80" height="80" fill="#40C463"/>
<rect x="600" width="80" height="80" fill="#40C463"/>
<rect x="600" y="200" width="80" height="80" fill="#40C463"/>
<rect x="400" y="500" width="80" height="80" fill="#40C463"/>
</g>
<defs>
<clipPath id="clip0_1_4869">
<rect width="3980" height="1080" fill="white"/>
</clipPath>
</defs>
</svg>
